<svg xmlns="http://www.w3.org/2000/svg" viewBox="0 0 512 512" width="512" height="512" role="img" aria-labelledby="title desc">
  <title id="title">KemanaKita</title>
  <desc id="desc">Ikon maskable: huruf K ransel di dalam pin lokasi pada latar biru langit penuh</desc>
  <rect width="512" height="512" fill="#1668D6"/>
  <circle cx="256" cy="256" r="212" fill="#55AEFF" opacity="0.55"/>
  <path fill="#FFF5D6" d="M256 96c-82.1 0-149 66.9-149 149 0 105.9 132.6 186.4 143.2 192.8a11.5 11.5 0 0 0 11.6 0C272.4 431.4 405 350.9 405 245c0-82.1-66.9-149-149-149Z"/>
  <path fill="#1668D6" d="M188 205a20 20 0 0 1 20-20h96a20 20 0 0 1 20 20v96a20 20 0 0 1-20 20h-96a20 20 0 0 1-20-20v-96Z"/>
  <path fill="none" stroke="#FFD666" stroke-linecap="round" stroke-linejoin="round" stroke-width="18" d="M226 200v112m0-56 68-56m-68 56 74 56M228 200c2-28 16-44 38-44s36 16 38 44"/>
  <path fill="#F5A524" d="M204 212h104v20H204z"/>
</svg>
